<mxfile host="65bd71144e">
    <diagram id="npUba6ONiZYZQWLJiUtJ" name="Page-1">
        <mxGraphModel dx="564" dy="734" grid="1" gridSize="10" guides="1" tooltips="1" connect="1" arrows="1" fold="1" page="1" pageScale="1" pageWidth="850" pageHeight="1100" math="0" shadow="0">
            <root>
                <mxCell id="0"/>
                <mxCell id="1" parent="0"/>
                <mxCell id="3" value="" style="shape=image;verticalLabelPosition=bottom;labelBackgroundColor=#ffffff;verticalAlign=top;aspect=fixed;imageAspect=0;image=data:image/png,iVBORw0KGgoAAAANSUhEUgAAAbcAAABJCAYAAAC+eGg2AAAAAXNSR0IArs4c6QAAAARnQU1BAACxjwv8YQUAAAAJcEhZcwAADsMAAA7DAcdvqGQAACguSURBVHhe7Z0JXFVV/sC/4oICQSrgiiEmuKDlTgaKyRCWpqlljiEpOmqOf81xmYacdGaY0hzTKcbSKI2cNlwoF0RN0hch5pKBCyo+QVHADYSnJD7/5953wcfjPQTFZmLO9/N5heede+5Zfuf3O+d37vvdOseOHbuFRCKRSCS1CDvt/xKJRCKR1BqkcZNIJBJJrUMaN4lEIpHUOqRxk0gkEkmtQxo3iUQikdQ6pHGTSCQSSa1DGjeJRCKR1Dpq+HduVzmxJYaV/45jQ+oDhIx5nt+OGUKfFo20738hCpNZPCiMlbnav8vhjn/kalaO9Cpv2cuuCSFy6yJGuh6oQhmNSVkcTtjKNC29FE96PzWA4DHjGN2zGfW0VCgh/7iOr77aju67b0ks8OSpJwYyaPgQnujQ1JTPsh6e9uqV3LzC8V2b+OobHd9tTKbAdwBPDHiK4cP60aFJA5HBKC5dyqCw98n1j2TrypF4ag28WXCKvQkb2bRtJxsT82gbGEjgb57mmeCeeDrfrh2GTPYkbGH7tzp2bs6lxVP96Ns/iEFP9Cifr4zLJFep/WZ103KUx6ytd6qDrf4pq0ueNjaeGO54zzcJOb/cap8Z9bFMfDICnemfFXGfxOotM/BzEhfczEe/dztfbdpO4sZvONX2CQYHBvH0M0H08nShrnaJqDxn9mzn6+27SNqp41wLfwb07cfAQQMs8kkkknulBndu18navISpM1ayzyGAGS+14+yaeUz+4xoO5t/U8tigJJudfx+Fj89wFidf1hJrAqFkQ4YybNgws08/OjVtSB0tx52pShkOeIZMYPacOcyZM5sZY704t/kj/jbxz3xwsLQ9P5P7/Ur+7/lJ/G3FJk46dmNouyISV7/BtKETmBd3kmItZwVKzvN91Gyen/wXVnyRgWO/AbQr2svqhVMZOjqSuFMGLWNFSnKTiJr2EmER7/LFSUf6DeuG48mNREWE8ey0lXyf+7OWUc/mv01n7NxP2GfszIjZT+F1aRdL547l2elrSC00mvJZpSrt1/DoTUi5vlQ+7WlqL0TxnupQCZXd0wZ17JvSqTRvSG88lESHzgQO1dL6tcKprpAAdWxm8WzYn4hSx+YZ+jlm8EXUnwh7dhZR358XSxoFZX78g/Cxc1mx7xZdR4TzjFc+O5fOFfleZXVqvppLIpHUDNaW43fHjVPsjNmE3uslVi/6PX4u1xjQuIjRkWIXt38Ijw5opmW0REz6hJW8ufqg+LuzKanG6MDQV/5qtrq/Gyoro1RxO9E6YATjy3aDz9Kt4e8JW5HCpu9PE/ZoYxrm6lg+fwXJ9GNq9Hwm+bfCnmuc033EH6ctY13kJwx4LIJgB7UAM0rI3f0R86N2gd90ot8ch7+yEy4+i+79+UyL+ozIlY/zWGSQMDEW3DrH7uWLiUoWl079gDcnPU4LRaGXXbuC+ct9iPnzEzQ+sZuYtYeh+2v8fXEoHeqL618aTJf/m0jEjlhi94bga3MM79T+rmqqykNDeeWN2zskc24crUIdepnyVgub9xQ7ytPanxbUaTGAPywcoP6t7uLiU8hy8mfcn7XdmooYm51WxsZsXKPmf0SXmNliLmjzg0Ai/h7J2A7KaI1lSJfXGB6xkfdi9zNU7MabquVKJJJ7xYqKuTtuXTjFwaP5uA/sg6+L4mBxoLW3l1B7V8i6WCTUiDVuUXwqgX8tS8Kxs7o2riU40fwhd/F/A1eKrnNTKDv9rk1s0IPXi+MJUw2bQiNaPD6SaX+cy5xJbSm5ZGUHVnKaXV9uE0qxOy9OGaUpT4F9Kx4fPYk/it3SpIeNXDJU7OESfRJfbkgTNx3OlLC+JsOmIK71DxvPi16g37CJXXoDJdcNFCrfXTlDxpl8UWdBvbYMefNLdEJRT+9THbVr2f6qcKuG6/ALYGtslHH1H8WUF7uLDt7Gl7tOU1JSTFHhDfGdmA8ZZylQG9eItkNeZ5tOx6bpfXhQSZJIJDVCjRm3Oi7dmBSzlvdG+tBQSSi+wNG0E0JZefCIZxPrNyo8xJq/LOVg/+nMeq6TllgbKOT8aeWkx4NenVrjSAH61HSh6lvTp7sXLqZMJuq403PUeMLDx/JUB2ct0Yz8TFJ/OAsuvnRvX1791XHryajwcMLHh9DB0bKHb5KvP8oPwl669OlKe3XBYYaLF937tBb2J51U/VUadQxiwnAxBhmreCXkBV5eHIvuaA4ljk1xc3OlsUN1NvmW7a8KdWq4Dr8AlYwNwlS17+4rxvosP6Rmkt/Im5AJz+DJQT5+5XmGv/wPYnVHOVfigKubG26NHeSZm0RSg9SYccOhBT6+vnT2dOBM7HR8ugYwZtFPtBs9hiFdyqlzE7cu8MNH7/Ke8Xn+Ork/LetX/RSs6sQT8WRXfHx8bn8ClpBcrbObqpRRyJnda/kwOppo8flg2SIWf3IUz+FTmdK/JXWMRVzMuiLy1cepkfLwR9UxXr1IlnIcY9+IRvbV6aMSrl7MRb3UqZG2UzSnAY2cFL+ftrO2b8fQ+e+xNmoeE0McSVkZQfjQQPxHRRC9M4Mi00U2uEP7tVwqugie7GjWl+ITsDhZlCC4pzpUQmX3vAcqH5s6ItnU7/lZF7lqdKDt0D8SszaK1yYG4pyygojwoQT6h/JqdCKniu7yPFEikVil5oxbGfVo8ugLvPP2X5ga4sqVc+kczbJUI8Wc2/Y+ER/WZ/Ls0fRscr9W5B0ImTiTOeqDDtpnXFdc69XhpuEyeXkXuGwwHffbxnYZtzGgj/+AtxYtYpH4vPWvDfxkcKa5q6PpUNPOkaYeysr+BoXXtAc4yviZy/ojpKamcexcRfVt90BTPJS1QfE1rhVbPNhachl9Wqq49jjnKrgl6/FAU3d1l1hceM3Kwyo/c011kz2IR1NHkyDYN8M36EVmLYthq6KEw56g6U+xLJr8ByI367UHI6xxh/ab4xnCxNlmfSk+47q63s5313WohDvd8y6pdGwUl/s1U7+7eDTlAbWDG+HuG0TorH/w6da1RL32EoFNj7Ju0StMjown664aJ5FIrFFjxq3k3I9sT9iO7kQhzg8/RvBTo5gyZThuie/xpzc2cVzRo2UYOH1oH3rDDhaO6C1W0l15MiJepKexMsyvRlbVJjwJGPkS4YrrrvQzPoiHG/5M1ub5+Ps/y6zNmTbOA0uxVYa5cVN+GrCFI8eOcUx8Dqd8QcQTdUlesYh3vs0Was4ZT19vxJ6WPfsz1N1UGbdy+f6f0xgx4o98etRKq13a4NuzlVj+p7L/uLL7u82tvO/554sjGDH+C45es1SudXHx7EBPB3HpnkMct3xiNT+D/XvOiB23N76e9pw7mEiCOn5K7TQl/Ke3WL7gaVHvw2zZfpg8mz8auVP7zWgdwMjxZn0pPuODH6ahsuCpSh3sGuL4oPIwxnUM162d5tnj4tCg/G7R5j3vkUrGRtkRH9+fKsa6FT19PXBQ50cCCboTFIhpZ+/uS1DoXJYtf5WBDmJxsOU7fsorN0kkEsk9UGPG7Vb+IaKnTWXmh3vIVbWZkeLr11XDYTDc4KZYcxsuXxC7pYsUFNfFtetws5X0TCaGdBA5m9P7hd+bVtU3DVzOyyPvQoHtR+TvGqFcHJyEwiwk+3QOV0VKSd5ZMhTb4uJO0wfubU1f16UD/QZ2EX9lsffwGYqEovboM5BBnpDxyYes1p3V2vQzuclf8/nOLGFD+xP0iKuaWo56regzuL8wsfv5ZPnn6M5dM6WXnCf5y/XsNDjgOawfjzSteGJTz6MHgwcpZ1jrWL46iXPFmhlXnpZc/SGfZIjbDhpIHw9hLLK3MVcZv+gksst2EPVxdH5A/Ff85dyIBpaeNxtUbH9VEKJYlTo0akGHHq3Fv46y87ujlNrsktyDfLPjlDDWnejVvkl543a/sDU26tOSn7P8k/3quA7u01oY0rNsnjuNaTNj0GWXSrQd9RwfwEVtnAONGtTYdJRI/ue5V89MGfUfDiB0RCdeWftXXr6ZSoingb1r13KQzoweN4CH62ayYVYYETo3Jq6OZlbwizysXau4KfWxh1kZn8Ujg15kvF9j9fHrqcqPaM1/LFttjhL39jz2lttliUY/GkrEwIEM89zMv1fMYVx6d9zy9pOoGIrfPkbnJsJQlGlk22W8Nlqs2q1y2yVYSj2PIGbMP83Zl5cSFT6Yr3oH0N3hDNsS0zA49GPq/BfxU+5bYfPWEI/gScyfeoaXo5YRHhhH75DOOGTtJTEtFwe/Gcyf0IcmImeFS+t5EjxjNlPPvkpU1AQCv+pNSI/GXNq3m5Qsg+naGUF41GsAjw9nkp+Ot9f9ibHZSTwT4AHnD5G4dhv5ns/z9zE9q/GYesX2l3E6jrdf3Wuxa3qAR0OnM7oqdajjKBZAo3kibgHfLApnRGIAPVoUc3xbImmG5vhNfYGBbZWdndl+3OY9pzFE+5fVPO4hzJg5AFs/gLA+Nl1pcukQ8Sl6YWiVcZ1EsIfym8jHGDspkJ1vf8YrY8UO/pk+eHCefYnb+Ca/E8P/PpLeVhYoEonk7qi5paJQpE+9tpTo+cNodXw9by3dzfXHJ7Ho3+/yanDrmrOi1UJPSnwcGzZsKPfZdbYQo3sgsz+IYv7v+uJ48ntOOvYibO7bvDcrEPdydsx2GdacYibscGjsqirF3H3HOaN6mxrg/thE/vnFCqEMn6V90QHiTj5A8O/mEfXpm7z8WHPbfVSvOY9NfYsv3lvA1ND2FO3aKerbl9+99i8+fTucx9xtP6RSz70vU99ZxeqFMwltX8SuDQcoaj+cGQs/Zv07E29f69KDyctj+HjhZAY0zyUxKobELEd6/G4hH0fPZUT7B0z5qoS19mtkpRBv0ZcbNuznbKHYqlWpDnY4dniBxes/ZMHUwbQT/bghTo9j4EvMeftdFr/cF3fLjqzsnqVYy3P4IhWO0ixRx2Yx61cvZIY6Nl+xq6g9oTMWsnr9YqaWjWtjHp38D77+WOQb4Mr5xBiiEs/i3ONFFn68jHkjfKr4VKlEIqkKNRx+SyKRSCSS/zzSyS+RSCSSWoc0bhKJRCKpdUjjJpFIJJJahzRuEolEIql1SOMmkUgkklqHNG4SiUQiqXVI4yaRSCSSWoc0bhKJRCKpdUjjJpFIJJJahzRuEolEIql1SOMmkUgkklqHNG4SiUQiqXVI4yaRSCSSWoc0bhKJRCKpdUjjJpFIJJJahzRuEolEIql11KhxM+btZ9XcIfj4DGHuqv3kmb3pX6UwmcUBPuJ78QmPRW/5fTUw5iWxJDRAlBVA6BIdGUlfsF5frH1bFc6RMDdIXB/E3IRzWtp/ATdTiQ4S/ROwhOTC6nSQgdToUNGe4SxOvqyl3WfyEpirjKXP6yTk2X4vec1wU9zudZPszE0gT0utVdz12P8nqN78uZkaTZAYu4DFyRRqaTWLUaiXJQTNXU+G4b+97yS/BDVn3Ix5HM3zYOzCNayd05INb6zm20wLY+Pkx6xvtxDp764l3C2XSVkdTc7QaA4c+5b3h+Xx/p/P0MK1vvZ9VWhB8Ly/MdG9M728m2hp/wXU7cSov03Cva8v7ZyqMzwO+I6aKtrTha7tnLW06qMqoaBoUqtiq9yCmLda1NW/C95N62qJ94u6uAXPYPXE7vj3epimmjEPik4VZq96GPWbWfVLLQAoRr/+i6oZq7se+/8E1Zs/dX2H87eJvenb9SGctLQaxahnW1I7Vrw+FC8H6ZCqDtWa878iak4K7Nzo1MkNO+M1CvNLcB/5NAFt7LUvaxjjZc4cMeDW2k2odDscvPwYOLpbtRWC8cIZjth3pYPHfarnXXEdfVoa3qoCrx439WnEe9+boanrG8727eH4VqmIG1w4cxr7vh3w+CX0iTruDvTt0FwZdXzDY9ge7ivMXnUo4PCO07S8hwVAtTAcY8fJplWUzbsf+/8E1Zo/N8+SFt/k/i0k7bx4dqY0bHdD9eb8r4ealQTF7di/H2Hvp+PZ1KmGCzfDzoOAUR2Ji/qIBL3i5BCryPABuGHEoNcRrbpGfQiISCDHcsFsyCBhcbj4PpRXl8eRHtIZT2VQDXqSoucSoLi9Av5CwrkzJC9R8ilut1JXXyH6pFXMVV2rQ4hIyBZ3vEHeoTVqWsAf5vKHAGtuQaVeCSwudaNGHxL7DpFa6sYN+D1z/zDE5LIxnudokoGOrRub+q+svuKeocuJj/2zqGMA4bEZotTLJC8erf1dTNbRQxR3bI2ruLBi2ToyVLeecu1BTsRGEFButVbq1lS+TydHzau0JZMMJa/PJKJTC0Q+s7aE/onlcbmEdG4lDIxF3yt98ZjST78nOt7UP2q/5twQZVj2YwrxiotLccflHCVWKSN0Famqe0nkTVhCqNJvr0YRl96Zzq1PmNx3PtOJVV3RVSwv7yDRoU8zYtFSpvmLuuTdsJCX5ayYqbjaXic+9VvV7a2MSYHqAg/S+llgKSuHvlbdswGLk8jJWC/qoYzxQfJSVxHa7TkWrXwZf9WVak1+zLAYe6vyYcppwphTXkaTfiIhQmmL1i/qMYD4+/s4k/t47kZSk98VfamMaw556t+lfVgVORZYnT93nnfGrKMkFT9Ea8W7Yswjdf1icW+l3uEsEXVR55FaHyVN6Uvztpa6pC3l8Yrqirw9H0wyHLD4Uz5XXabVGccIPljxB3FN+flx6Nwh1pfNv3dJFjJTod/N+6nUtWxV7q30cezHprEJ/4LUE4rshIp25VSQk5KyYxilPGtu6+rMqVKszfkg5sbvN7VPubbgnOnv8FhOHDK5ln3CVxD/hTIGt8e6yvqmoCp6tmaoWfujuB23buGdid6kvP8GS7dbTN4aoz7NgmcSE4r4vEFshmkaGHO2Eznha+qO+ZDDWyPxPl/ANfUbDUM6sQteZ4fnXA7sm4pbkh5vT3ccjNkkRM4jru4o1h3eQqR3vpgIx9GtdyJy6yGOHVvHLD8nMfhLmBBXnzHr9rE10pvzBdfFPXeydOZheq3ew7onG7Ix19ItKKZcRhwLJuzAdfY6Du+ah1e+AaO45/alb3Ok1z84sO4Z2HjN5LK5eIK9Om9TGaX1dZ2K7vBO3vHK42yzvrzkr62U1Z0MmjK8RPreLFMZVstuh1dQGJH+nnTMT2M/rfF+yAWnOqaibrs1PcXOqDXN1LxulOi+YGPrEUQMyyM9+6rWlm/xXLCJfVNbkZTijmdzh4p9f6UXU96fgwc/kni4LbMSlX7dy44fs630oytBUybj71mILuY7WodOYljKKbKLCoQie4MJO9qy4MAGprqdIsW7Dc2dfU3uOw9l12BX9fLozKipz+IxcTX7ji0gyLjTQl7cCJ47h2Hu6az56AS+Q/uRe+4H1m06TetH3NDtPcFFa7Li3J8pkYPxLEkiZmMTQiOeICU9F1EAUycGMnF1MscWDsBoRX7KYT72tuRDy6piOFVeRh91oXn/IfhrX6s7K4RB6fIUs955Affs9XyU5snQYXDu0BY2ZTbmEY809qZfqoIcC2zMn4Z3mnfCOF1M/wmd6m4tJPWj15iS3ILZukPsW92Z9a9t5PDNQk7qvqNB5BaOHDvG7ll+Zm2ti5tVecznmrMf08e5cVrMqVvkk51eJPopkFGzqjuO13kwKLz8/ChO4K0Z80lW5t+RZFY/8g2vfXWMm5b97tdYq6egri8vLbUm9xes93H/kUJ2QvDoeJWf9t/A29uBvC2LLOTEgOFkMusbTGfrkWMc2z0Tv3KegBvVmFO3tGsULOZ88GTeGeZM9prPSfMNYljuWQ6t20Zm6/Z46H4io8VzLJ3TG3R7ONzm/0hUxjr2O37My6yavmlxli131LNmfXmP1KxxU3DwInhmhGjUFXYdylR3KPcHJzyDp7HkrRbEha0QK5mLpMR8DnOmMMjuAKuW76bzxADalLVQCIDuM96rF8rM4d40VCZ+rjKo7hhSPmMRocwY1IADq6LZ0nkE/X39CZ3nwYEfTpvaULiPmEWi+BkDsDvwOcu3tGVif0d+iPmI85PDGe7lTCNnl4rnT2I1roteR7050xnb1Y26zYJZMFMIiLjnX88PZYqoi0MjZ9zUs4sHKTyZSpJahvF2fcd2x61uS4IX/Jnwbg9yOd3ZZNAMuejTNWVYeJpDSR6mMqyW3URTnnox7boweOQUoqNH4lnWP0YKU5OIoxudPRtqeQ+T1jiYCb4/k5rkiHfzIq0tU0V77VWXZK5qYAxW+r43dumHyOodztzJfripRtQJN+OPVvqxhWiTUH4pZ2kcMgLfwnSSPIQRu5FC9Hv2zJk5GK+G+cKQ5+GhukDzSdXpEFtGPK9ZGxfr5bVsYhR1PstDyoJGObetUOfHaXJK9H+uM4HjnqJlfqYYp0u0HPQEbUTt/Xt5YW9NVtoUiYXFj6SkuRIywVf04094eLekibr4EHIqjL91+fEwm4Ci/8vGvo7tMTTHqUd5GXVojZdzIenuyg6pHobzmaRrBuXkoZ/IJYBxz7Uhf18aKadbMiikHRQr5dYRfXEHObY5fxqIOVDZvFMoEPdPV89KG4td/9uLGjJ9yki6utnTyMkF01KtMb1Dx9H6wI/orT0QYk0eW7rh5uNM/vYCeng0pa7xGgUX2t6eR9UdR8czZvNjPPOmNyfF6bdMUeafnT1OjR1NdbHs93KYPCgV5N5ZmSPW+jhfyE4aWT/WpcvgkYQvG0e9rS4WcvIQzr1fYF7rY/ygeqossCpbtuaA+ZhazHlVh+RB4Biea2lgH+mcbvkEIW0aUKzUtfEFjiado7fQZZP9mqE2zd0Jo7jnnfXNJJZNdWKrkJ9K9WwNUvPGTcGuMa07CkutKpEaxphB7JId2tNy9XHrFUigvVgB5B5BF6cjdloos+Kv4DlGrFRaOt5uoDGL3Z8fIWRIL5rZKecu29C5K4NarCrKrNhpBM6Kp8BzBK8M88TRTtkdhjNEH82nivtDEYKsNUwLnEd8gRdjXgmhpfGkuKc3o4Tw2YlVo6pwNbdgGRdT2RHrRf9uzcw6W8l7gL6jHhfGpVTAFIV0E33aAa2MC/y44yA9+ncR9dUuE6jnamJt7u/rQE5SAnH2JoE1pStlGGyUXdc04d1/Q+jgjlbGxXR+lqsqQyHnZnlVRSYmQEcO8Pmubgzp21wY1mPsiNuPu2pgjlnpe8jV5+IvVs2dxM0Mh3cRl94dX45V7EdHg6p83UeOYHCnRmo9CPGCpE3sCgmmb7O6put1biYXqGo0bojVoQdCy1WxPFHPOmf5YUu2aWFQaK3ODbik5FWu63hNTGQ97kPF/V3zSIsvFtfV4bA1WTEoSqERI0OD6aQaYXu1nnUy97MlvZWp763W01zRKOdtpWNvSz4sH5gyl1HFZayVMbQvvg45JH29E/syIyuaJerX8ZJQclmdGSrmgWumJjP2GXeWY1vzp2lm5fNOQT1vU/rvAZPC9Q+gp3oeX8CRPSkUa0cDds2CmD0ki8hPUy0UnWb4LeRRUciqu1O0x7So28Aytb8xjXm1xrENRmVhUzY/FE9IBv6DupsMteEEexJLNBe8Zb+bY+B8Bbnvhf9DOdb72Fx2lDWQLTmxE4vb2QPRR8ZauBY1+ajqHDAXuXJz3k7b6Svt9+KSYqDdB4i5/iCZpXJ5XVlMC9kZ6CP6xyQD6UN9xBw8VAV9Y2pz5XrWsi/vjXIyePeIRim+79AlpjMwZQV1tQejAlpxXTl3KDuvsUYBqdGTrPiDbaDsVjZ/w7cZygrmBnl7E0ls0VYMptKUQOas3UTMzP44bo9mXbbi59a4ZSD/tHK28DN5yZ8RkyjMY9lTafZiNfIlB2Kmi9VbEm9H/ZMFryu+ZAeae17n0z2ZlChl9H6VtQdWMrO/Pdvf3qy6zfJwwblREfqEj4haWVDRdaRynqycItEveRz6eA07cgrEdhyxmmuAQb+d96LWmwTMIVdMxCtmZdwgOytPTBfFVx/Lqh2ZXMjOJMu7De5Xk1jz+UFNYLXVotqen62X7XTTJODKJG9m5alSo6L40/D3rs/VPINZXiOZP+xG17sJxpOnEKkibw7JH6whseRBs7pa9H3mSaFI6qkPf4gO572FX9Fm3mj6Pihml2U/lijK115VuM1Q6pFB78bFnNSfV0s2ius/iNktxsDkKjMqRkP3EN51r5KriEyVyjNyKTNdrCS98XW6TGaRcqFFnc+cVPP2VRYU15SJ3J3pI7vhoJ4XKQuKB8U1FrKyTsiGqhQURSDaqtatpdiHiHuorjhvnC6cR4x+xXqW01HKeVvp2F+3MYZm07UwmSUWMnpTKJDs9CtiUfkgV3fG8nmG020jq+siFlhuXFN2c/6/ZWRvB9MZrWII6xXeWY5tzZ8H7jDvBCYDpIzdg6Ydy8+FFF4vFuV8zMJVrZgX2pbUJUJ35NzEoblYFX26l4xyT+6ZlLClPHKp0LQ7VbwHTY7zudJPitu64bm7GMfj5JSbHw1xdnPi5/xCrivy/t4yVrUZR2inY1b63QzVkFvK/Qv0ttHHDmayUza65eTkKw7v+hevK+ezDu54sps9GRbubIWqzgFzHVtuzhea+rWvH92a3TAZ6OnD6K3qpBKG+vvQSFlA25uOAm6P3SPYVVnf3FnP1uQDm2az5V6ww6GdH8+ynmlP9iDg1QScxk0m2EKJGvWxhHccRIQuF3QRPNmx9DC76tzUX6L90jE4r5uOj48v/lE/E/rXkfg268rw6a6sGtELn/5LSPObxsvlfOFt6DPajZVhE1h8pifPBjrinv0dO1Pr0HX487Rc9RzdlAPNtEeJGNeNC59No1/Hrjy5zInJA7x4sOtgprdcy4huHem/OB2/eePxExPR23M9YYMiSXT1JUBsJLJ37C5vpN36MilSq1fY5xgGPc/AZo1p6e0g6vISCxLt6RrgaapL8lExEaFkx5tMii2i76TxWr0mE2MIYOzAZlwruIK7q57tW2/g28cRftzC5tRzQhizcC/ZwZuTNlDQzkrZh9JME95SaZWiKi+hutKFMXVUXCWXVIF2EuJWmH8JUjIxPBLEaKW9T7/LmZChBOZdM7XXrlOFvp/c+qJQaCksGiF2fP7RGEMXExHcGmdr/VicwV5ldevrotUjnZQMeCR4EJ4rw3h6cQ4hz/Yhzz2DHTuPUFiYz2l3UceLJTR/tKrlFVKv4Cz73C+ye08W9m5W5KWrUfS/l+pSUXfC6kSub1KguTv5OukavhayMu/lHhQLI5auGAlhfG4pdSOdjIISCrIyxJjsZ89JO9ystdvcWKku5tKxP0dza/JhtkBUVtlp5WTUU3PL1cdVv5Ot9t70ycvjx/XxJB8/JQya4gK7oe7sTE+3KjuMLHLjEki62uTOcmxr/ujbVD7vxMJX7T/R7zvenE+802+0fhD9v96JKTEzCXYr4kya0B39fOn45GpcJwfgVW6HoeyiKspjgX19MR/yyW1xloQvT9FR7JYwJLJuw/ecqO44TvYgvdz8cLmtFzpOYL3LOGIignC7ZKXf1fwmTIbcUu5bYufY3Eofb2Xdjm+0s0hFFuxwqiAnYXQoPM5n0wbQUejOZa6DGeDV0HQzFWvX2J4D9g3NZK7cnC82GTTlSV0zA206+thP3Ne72JMmFtBZixjRSdO7ytjZ0mUV9I1Zf9rUs+X78l6pc+zYMfMTRomkBlB28ksZtLINMSvNz/UkktpMbZZ75cnsl1npGcnKkV41tSu6r0i1I7kPKP71vXiXnldIJP8T1GK5V8+o3RnUs9WvxmhI1SOpYZSwTM8RtnI/uojX+Si1pp+Bkkj+G6nFcq+E2esRxsrceCImfPKriWQi3ZISiUQiqXXIndt9p4oBf3/RIMQ1QU0EnlZ+4K5EZVDaXRqp4m7SJRKJpDzSuN13qhjw9xcNQqxQjYC+VqmBwNOGw2ze1YJZ36ay652HtEgVwoQpES/CNtLsrUT2rQ3gwMrdZIpq2kqXSCQSS6Rx+yWoUsDfXzgIcbUC+lqnLLxTtd7GYIaDLyNf8sNN+SFnNz/6qokFHN64ll39RjGmdwucmrWkZXom5w1XbKRL6yaRSCryKzZupQF1FRdV6Y/Eb5CXGnc7QPGSJPJyNHefraCxJ36wHuhUC4ZbPqBpIVYD7d51wF+jKM9KEGJrgWUrC9ZaitVAsEre8sFmDeYBfdXyAsoHN715hwC/Klq8QOVHsxaR2Evf3VX6zj719413eH+fsaiAK2q0k8PEr8oz/fhUFKukX7B3wankqPX0Rr9iEZZIJPeNX6lmKNQC6jZjtu4Au97xIb/whlDaa5g5JUkNUHxk31s8sn45X+X5VR40NqOV9UCn57tYBDR1x6lgR4VAu0G/v9uAv/VtBCEusR5YtqCSYK0KNgPBWgabvSY2TGYBfY+IvOWCKdtTsO0OAX5VlHiBP2mxHrUkDfUVGrp3GKb7ifSLN7HzfJxRnSvZ3SlBgj/SMyK0hykKghpezEV8oRnQh1xoqIaKqph+O/CzRCKR3OZXadyMOUlaQN3n6ermgPKGgJm989n89ic0mD5JDVBs18iJxmpEVpMSth001tFGoNPC8gFNo1/joaSvLALE9sXxhFCydxPwt05pQOXyQYi9S761Hlj2gcqCtRrVQLvWA8FaBpsVxsE8oK9lMOVlD5O0uLIAvxpqGaYYilZPCJu0xNvjCgVFJWK80jn/SC8bv/25Qc72jWQ/9zuCm9XlWmE+xWW7QdPYuXdsiaPBWrpF/EOJRCLR+BWqBrFq//E7YnsoMdDMdgOqku6s/cjQiOHIDyQWd6Nzm+tCCVcSNNZVi6NWIdBpgVlAU9FNVgPtlnCqQnDSqgT8fQiHzCQrQYh9cMoQxtJqYNnKAoxaC0paPhBsuWCz5gF9ywU31QKfVhrgV0MNy2N63Y1tLokd9SUO775K98fMYueVobzDK5YtzkMZ66u8XuWWKZySqzNKqFBjzl6+jnPjpZCO1LOa3kkL7SORSCTl+RUaN43sbHIMRvUleR+v+pYce+VVC9eFMi1WA+2WBizteelg5UFjG52zGui0Z3F2xYCmFQLtnld3L+WDk1Yt4G+OUNbCFCqa2iwIcVvcrQWWHVbMijsGGK0sEKx5sNkC7d1aSkDfTPQVgpsKKgvwqyJ2W8obCTy70cHdhruxblM8epSQHv81Rzv0w7fCG5LFAiR1M5t4grF+jujXx5FSWIem3l3wv1BA0c1stv/zHXb1UxYOjW2kW7xvTCKRSDR+hcatLm7+Y4hUA4X2JyzmOoPG9qeZs29ZANeOw+NwmbKEiODmXFcNmu2gsbo9B60EOm3KGTVCtlkkdqfb5ZcFiG1/5S4D/v6My8O9rAQh/g59u6cqBJYNqpdXabBWa0FJ573szXmrwWYhpzSgb/pp0soFN7URhLXcE5XK79sG0W/aGnJT3mDEgu22f7tHIdmN/XhK3ZWZo7zl4FMWTJnDG2H96OjTg7CTzegk7mPXJoCJnbfwZKcB/LVkPKsjgtQHSKym31Leeqw86COjoEgkkvL8j0cokQF+7xvKW5v/tY8OL4+ysmuTSCSS+8v/uNaRAX5rFsXVuIrwN78g/oMdOIeOlIZNIpH8R/gf1jwywO/9wFh4ifRNP1I4OLTC+/wkEonkl0IGTpZIJBJJrUP6jCQSiURS65DGTSKRSCS1DmncJBKJRFLrkMZNIpFIJLUOadwkEolEUuuQxk0ikUgktQ5p3CQSiURS65DGTSKRSCS1DmncJBKJRFLrkMZNIpFIJLUOadwkEolEUsuA/wfoZSJEmvIZUgAAAABJRU5ErkJggg==;" parent="1" vertex="1">
                    <mxGeometry x="10" y="20" width="541.23" height="90" as="geometry"/>
                </mxCell>
                <mxCell id="11" value="" style="edgeStyle=none;html=1;" parent="1" source="4" target="5" edge="1">
                    <mxGeometry relative="1" as="geometry"/>
                </mxCell>
                <mxCell id="4" value="Inicio" style="rounded=1;whiteSpace=wrap;html=1;" parent="1" vertex="1">
                    <mxGeometry x="240" y="120" width="120" height="60" as="geometry"/>
                </mxCell>
                <mxCell id="10" value="" style="edgeStyle=none;html=1;" parent="1" source="5" target="8" edge="1">
                    <mxGeometry relative="1" as="geometry"/>
                </mxCell>
                <mxCell id="18" value="" style="edgeStyle=none;html=1;" parent="1" source="5" target="12" edge="1">
                    <mxGeometry relative="1" as="geometry"/>
                </mxCell>
                <mxCell id="5" value="n_par = 0&lt;br&gt;n_imp = 1" style="shape=parallelogram;perimeter=parallelogramPerimeter;whiteSpace=wrap;html=1;fixedSize=1;" parent="1" vertex="1">
                    <mxGeometry x="240" y="200" width="120" height="60" as="geometry"/>
                </mxCell>
                <mxCell id="8" value="" style="shape=curlyBracket;whiteSpace=wrap;html=1;rounded=1;" parent="1" vertex="1">
                    <mxGeometry x="470" y="190" width="20" height="80" as="geometry"/>
                </mxCell>
                <UserObject label="#Se crean dos variable&amp;nbsp;" placeholders="1" id="9">
                    <mxCell style="text;html=1;strokeColor=none;fillColor=none;align=center;verticalAlign=middle;whiteSpace=wrap;overflow=hidden;" parent="1" vertex="1">
                        <mxGeometry x="490" y="220" width="160" height="20" as="geometry"/>
                    </mxCell>
                </UserObject>
                <mxCell id="20" value="" style="edgeStyle=none;html=1;" parent="1" source="12" edge="1">
                    <mxGeometry relative="1" as="geometry">
                        <mxPoint x="300" y="410" as="targetPoint"/>
                    </mxGeometry>
                </mxCell>
                <mxCell id="25" value="" style="edgeStyle=none;html=1;" parent="1" source="12" target="24" edge="1">
                    <mxGeometry relative="1" as="geometry"/>
                </mxCell>
                <mxCell id="12" value="n_par = 200&lt;br&gt;n_imp = 200" style="html=1;whiteSpace=wrap;aspect=fixed;shape=isoRectangle;" parent="1" vertex="1">
                    <mxGeometry x="225" y="290" width="150" height="90" as="geometry"/>
                </mxCell>
                <mxCell id="15" value="" style="edgeStyle=none;html=1;" parent="1" source="13" target="14" edge="1">
                    <mxGeometry relative="1" as="geometry"/>
                </mxCell>
                <mxCell id="13" value="&lt;span&gt;n_par = n_par +&amp;nbsp;&lt;/span&gt;sum_par&lt;span&gt;&lt;br&gt;&lt;/span&gt;" style="shape=ext;double=1;rounded=0;whiteSpace=wrap;html=1;" parent="1" vertex="1">
                    <mxGeometry x="17.5" y="415" width="165" height="80" as="geometry"/>
                </mxCell>
                <mxCell id="16" value="" style="edgeStyle=none;html=1;" parent="1" source="14" edge="1">
                    <mxGeometry relative="1" as="geometry">
                        <mxPoint x="300" y="280" as="targetPoint"/>
                    </mxGeometry>
                </mxCell>
                <mxCell id="14" value="" style="shape=waypoint;sketch=0;size=6;pointerEvents=1;points=[];fillColor=default;resizable=0;rotatable=0;perimeter=centerPerimeter;snapToPoint=1;rounded=0;" parent="1" vertex="1">
                    <mxGeometry x="80" y="260" width="40" height="40" as="geometry"/>
                </mxCell>
                <mxCell id="21" value="" style="edgeStyle=none;html=1;exitX=0;exitY=0.5;exitDx=0;exitDy=0;" parent="1" source="28" target="13" edge="1">
                    <mxGeometry relative="1" as="geometry">
                        <mxPoint x="230" y="455" as="sourcePoint"/>
                    </mxGeometry>
                </mxCell>
                <mxCell id="23" value="" style="edgeStyle=none;html=1;exitX=0.5;exitY=1;exitDx=0;exitDy=0;" parent="1" source="28" target="22" edge="1">
                    <mxGeometry relative="1" as="geometry">
                        <mxPoint x="300" y="485" as="sourcePoint"/>
                    </mxGeometry>
                </mxCell>
                <mxCell id="22" value="&lt;span style=&quot;color: rgb(240 , 240 , 240) ; font-family: &amp;#34;helvetica&amp;#34; ; font-size: 12px ; font-style: normal ; font-weight: 400 ; letter-spacing: normal ; text-align: center ; text-indent: 0px ; text-transform: none ; word-spacing: 0px ; background-color: rgb(42 , 42 , 42) ; display: inline ; float: none&quot;&gt;n_imp = n_imp + sum_imp&lt;span&gt;&amp;nbsp;&lt;/span&gt;&lt;/span&gt;" style="whiteSpace=wrap;html=1;" parent="1" vertex="1">
                    <mxGeometry x="225" y="530" width="150" height="60" as="geometry"/>
                </mxCell>
                <mxCell id="24" value="print n_par&lt;br&gt;print n_imp" style="shape=document;whiteSpace=wrap;html=1;boundedLbl=1;" parent="1" vertex="1">
                    <mxGeometry x="470" y="295" width="120" height="80" as="geometry"/>
                </mxCell>
                <mxCell id="26" value="SI" style="text;html=1;strokeColor=none;fillColor=none;align=center;verticalAlign=middle;whiteSpace=wrap;rounded=0;" parent="1" vertex="1">
                    <mxGeometry x="380" y="310" width="60" height="30" as="geometry"/>
                </mxCell>
                <mxCell id="27" value="NO" style="text;html=1;strokeColor=none;fillColor=none;align=center;verticalAlign=middle;whiteSpace=wrap;rounded=0;" parent="1" vertex="1">
                    <mxGeometry x="290" y="385" width="60" height="30" as="geometry"/>
                </mxCell>
                <mxCell id="28" value="&lt;span&gt;sum_par = 2&lt;/span&gt;&lt;br&gt;&lt;span&gt;sum_imp = 2&lt;/span&gt;" style="shape=ext;double=1;rounded=0;whiteSpace=wrap;html=1;fontFamily=Helvetica;fontSize=12;fontColor=default;strokeColor=default;fillColor=default;" parent="1" vertex="1">
                    <mxGeometry x="240" y="415" width="120" height="80" as="geometry"/>
                </mxCell>
            </root>
        </mxGraphModel>
    </diagram>
</mxfile>